<svg id="Layer_1" data-name="Layer 1" xmlns="http://www.w3.org/2000/svg" xmlns:xlink="http://www.w3.org/1999/xlink" viewBox="0 0 1200 628" height="134" width="256"><defs><style>.cls-1{fill:url(#linear-gradient);}.cls-2{fill:url(#linear-gradient-2);}</style><linearGradient id="linear-gradient" x1="133.62" y1="286.3" x2="250.57" y2="286.3" gradientUnits="userSpaceOnUse"><stop offset="0" stop-color="#fdcd2a" /><stop offset="0.59" stop-color="#f148ef" /><stop offset="1" stop-color="#da546c" /></linearGradient><linearGradient id="linear-gradient-2" x1="71.58" y1="338.4" x2="182.57" y2="338.4" xlink:href="#linear-gradient" /></defs><path d="M314.62,327.72A17.79,17.79,0,0,0,321.5,340q5.94,4.63,15.06,4.63a32.39,32.39,0,0,0,11-2,20.84,20.84,0,0,0,8.52-5.24l9.12,8.86a33.36,33.36,0,0,1-12.87,8.44,44.27,44.27,0,0,1-16,3q-16.49,0-26.37-9.68T300,322.13q0-15.39,9.81-25.21t25.49-9.82q16.89,0,26.3,10.37t7.5,30.25Zm41-11.86q-.56-7.77-5.93-12t-14-4.22a22,22,0,0,0-13.56,4.22,19.28,19.28,0,0,0-7.3,12Z" /><path d="M434.41,356.07v-36q0-8.86-4.77-14.11t-13.36-5.24a17.43,17.43,0,0,0-13.49,5.85,20.52,20.52,0,0,0-5.32,14.31v35.17h-14V288.74h12.81l.81,9.82q9.54-10.77,22.63-10.77,12.68,0,20.78,8.59T448.58,320v36.12Z" /><path d="M487,269.52V289h19.63v12.13H486.87v32q0,11,9.67,11a19.41,19.41,0,0,0,8.59-2.31l4.09,12a33.32,33.32,0,0,1-13.5,3q-11,.27-17-5.79t-5.93-17.93v-32H459.88V289h12.95V271Z" /><path d="M533.88,288.88l1,8.86q5.86-10.37,19.76-10.36,10.23,0,16.63,5.72l-6.41,12.27a19.6,19.6,0,0,0-24.8.68q-5.18,4.77-5.18,13.63v36.39h-14V288.88Z" /><path d="M634.38,297.53q9.75,10,9.75,25t-9.61,25q-9.62,9.88-25.29,9.88t-25.07-9.88q-9.54-9.89-9.54-25t9.6-25.07q9.62-10,25-10T634.38,297.53Zm-40.07,9.34a22.83,22.83,0,0,0-5.65,15.67,22.52,22.52,0,0,0,5.58,15.54q5.6,6.27,15,6.27c6.28,0,11.29-2.09,15.07-6.27a23.94,23.94,0,0,0-.21-31.14,19.15,19.15,0,0,0-14.86-6.48Q600,300.46,594.31,306.87Z" /><path d="M659,387.28v-98.4h13.22l.82,10.9a24.46,24.46,0,0,1,10.15-9.06,30.14,30.14,0,0,1,13.56-3.21q15,.14,24.47,10t9.47,25.07q0,15.4-9.27,25.22t-24.67,9.81a34.58,34.58,0,0,1-13.56-2.79A21.4,21.4,0,0,1,673,346.26v41Zm51.65-49.34q6-6,6-15.4t-5.86-15.47q-5.87-5.93-15.4-5.93T680,307.28a21.37,21.37,0,0,0-5.8,15.26,21,21,0,0,0,6,15.27,20.27,20.27,0,0,0,15.13,6.13A20.65,20.65,0,0,0,710.62,337.94Z" /><path d="M807.24,288.88l-42.39,98.4H749.31l13.91-32.17-26.85-66.23h16.35l11.59,31.75L771,339.71l7.23-18.81,13.36-32Z" /><path d="M878.37,281.79a22.59,22.59,0,0,0-9.74-7.7,35.62,35.62,0,0,0-13.84-2.93q-9.81,0-15.94,3.88t-6.14,10.57q0,6.27,5.93,9.13t17.24,4.5a121.3,121.3,0,0,1,14.45,2.86,54.53,54.53,0,0,1,11.86,4.84,22,22,0,0,1,8.92,8.72,26.6,26.6,0,0,1,3.07,13.15q0,10.23-5.93,17a32.15,32.15,0,0,1-14.45,9.61,61.28,61.28,0,0,1-19.14,2.79q-29.31,0-41-21.67L825.08,329q9.27,15.68,29.71,15.67a44.89,44.89,0,0,0,11.45-1.36,19.4,19.4,0,0,0,8.93-5.11,12.67,12.67,0,0,0,3.75-9.34,11.4,11.4,0,0,0-6.48-10.7q-6.47-3.48-17.92-5-6.54-.83-11.24-1.91a70,70,0,0,1-9.89-3.14,27.74,27.74,0,0,1-8.38-4.9,22.56,22.56,0,0,1-5.31-7.43,24.57,24.57,0,0,1-2.12-10.43,23.72,23.72,0,0,1,12-21.12,45.29,45.29,0,0,1,11.72-4.7,53.49,53.49,0,0,1,13.08-1.57q25.49,0,35.58,16.08Z" /><path d="M965.72,347.35a35,35,0,0,1-25.49,10.49q-15.26,0-25.35-9.27t-10.09-26q0-16.76,10.09-26t25.35-9.27a33.31,33.31,0,0,1,24.26,9.95l-9,9.4a22.35,22.35,0,0,0-30.53.07q-6.13,6.07-6.14,15.88,0,10.23,6.14,15.95a21.51,21.51,0,0,0,15.26,5.72q9.81,0,15.95-6.27Z" /><path d="M1030.58,288.88h13.63v67.19h-13.36l-.68-10.9a21.11,21.11,0,0,1-9.74,9.4,30,30,0,0,1-13.43,3.27q-15.12.14-24.8-9.27t-9.68-26.17q0-16.35,9.88-25.69t24.87-9.33a28.7,28.7,0,0,1,13.49,3.27,22.15,22.15,0,0,1,9.41,8.86Zm-37.76,17.38q-6.26,6.06-6.26,16.14t6.26,16.22a21.37,21.37,0,0,0,15.54,6.14,22.72,22.72,0,0,0,10.7-2.46,17.39,17.39,0,0,0,7.09-6.4,30.94,30.94,0,0,0,3.54-8.66,19.45,19.45,0,0,0,0-9.47,30.72,30.72,0,0,0-3.54-8.72,17.48,17.48,0,0,0-7.09-6.41,22.84,22.84,0,0,0-10.7-2.45A21.47,21.47,0,0,0,992.82,306.26Z" /><path d="M1114.25,356.07v-36q0-8.86-4.78-14.11t-13.35-5.24a17.43,17.43,0,0,0-13.49,5.85,20.52,20.52,0,0,0-5.32,14.31v35.17h-14V288.74h12.81l.82,9.82q9.54-10.77,22.63-10.77,12.67,0,20.78,8.59t8.11,23.57v36.12Z" /><path class="cls-1" d="M203.21,334.63c15.95-12.32,16.8-25.54,3.22-39.09-19-18.93-38-37.81-56.83-56.86-13.12-13.26-13.41-31.48-.72-44,29.1,28.13,57.31,57.2,86.06,85.7,38.36,37.6-2.55,70.69-30.22,97.58-23.79-23.78-47.08-47.08-71.1-71.11,8.78-9.89,22.53-20.35,34.64-7.29C179.89,311.06,191.38,322.73,203.21,334.63Z" /><path class="cls-2" d="M173.27,433.34c-29.62-28.3-58-57.86-87.1-86.68-19.35-19.43-19.46-45.44-.29-64.92,13.14-12.62,25.08-26.62,39-38.27C153.45,266.2,132,279,113.53,297.84c-9.85,10.22-9.82,22.31.13,32.32,19.65,19.79,39.51,39.36,59.08,59.23C185.45,402.2,186,421.89,173.27,433.34Z" /></svg>